<svg id="visual" viewBox="0 0 960 540" width="960" height="540" xmlns="http://www.w3.org/2000/svg" xmlns:xlink="http://www.w3.org/1999/xlink" version="1.1"><path d="M0 266L53.3 261.5C106.7 257 213.3 248 320 254.2C426.7 260.3 533.3 281.7 640 280.7C746.7 279.7 853.3 256.3 906.7 244.7L960 233L960 0L906.7 0C853.3 0 746.7 0 640 0C533.3 0 426.7 0 320 0C213.3 0 106.7 0 53.3 0L0 0Z" fill="#ff6752"></path><path d="M0 384L53.3 387.7C106.7 391.3 213.3 398.7 320 406C426.7 413.3 533.3 420.7 640 421.5C746.7 422.3 853.3 416.7 906.7 413.8L960 411L960 231L906.7 242.7C853.3 254.3 746.7 277.7 640 278.7C533.3 279.7 426.7 258.3 320 252.2C213.3 246 106.7 255 53.3 259.5L0 264Z" fill="#ce5b4b"></path><path d="M0 541L53.3 541C106.7 541 213.3 541 320 541C426.7 541 533.3 541 640 541C746.7 541 853.3 541 906.7 541L960 541L960 409L906.7 411.8C853.3 414.7 746.7 420.3 640 419.5C533.3 418.7 426.7 411.3 320 404C213.3 396.7 106.7 389.3 53.3 385.7L0 382Z" fill="#9f4f44"></path></svg>